<svg xmlns="http://www.w3.org/2000/svg" viewBox="0 0 120 120" role="img" aria-label="UN Sustainable Development Goals wheel"><path d="M60.70 2.00 A58 58 0 0 1 80.30 5.67 L70.50 31.90 A30 30 0 0 0 60.36 30.00 Z" fill="#E5243B"/><path d="M81.60 6.17 A58 58 0 0 1 98.56 16.67 L79.94 37.59 A30 30 0 0 0 71.17 32.16 Z" fill="#DDA63A"/><path d="M99.59 17.61 A58 58 0 0 1 111.61 33.53 L86.69 46.31 A30 30 0 0 0 80.48 38.07 Z" fill="#4C9F38"/><path d="M112.23 34.77 A58 58 0 0 1 117.68 53.96 L89.84 56.87 A30 30 0 0 0 87.01 46.95 Z" fill="#C5192D"/><path d="M117.81 55.34 A58 58 0 0 1 115.97 75.20 L88.95 67.86 A30 30 0 0 0 89.90 57.59 Z" fill="#FF3A21"/><path d="M115.59 76.54 A58 58 0 0 1 106.70 94.39 L84.16 77.79 A30 30 0 0 0 88.75 68.56 Z" fill="#26BDE2"/><path d="M105.86 95.51 A58 58 0 0 1 91.12 108.94 L76.10 85.32 A30 30 0 0 0 83.72 78.37 Z" fill="#FCC30B"/><path d="M89.94 109.68 A58 58 0 0 1 71.34 116.88 L65.87 89.42 A30 30 0 0 0 75.49 85.69 Z" fill="#A21942"/><path d="M69.97 117.14 A58 58 0 0 1 50.03 117.14 L54.84 89.55 A30 30 0 0 0 65.16 89.55 Z" fill="#FD6925"/><path d="M48.66 116.88 A58 58 0 0 1 30.06 109.68 L44.51 85.69 A30 30 0 0 0 54.13 89.42 Z" fill="#DD1367"/><path d="M28.88 108.94 A58 58 0 0 1 14.14 95.51 L36.28 78.37 A30 30 0 0 0 43.90 85.32 Z" fill="#FD9D24"/><path d="M13.30 94.39 A58 58 0 0 1 4.41 76.54 L31.25 68.56 A30 30 0 0 0 35.84 77.79 Z" fill="#BF8B2E"/><path d="M4.03 75.20 A58 58 0 0 1 2.19 55.34 L30.10 57.59 A30 30 0 0 0 31.05 67.86 Z" fill="#3F7E44"/><path d="M2.32 53.96 A58 58 0 0 1 7.77 34.77 L32.99 46.95 A30 30 0 0 0 30.16 56.87 Z" fill="#0A97D9"/><path d="M8.39 33.53 A58 58 0 0 1 20.41 17.61 L39.52 38.07 A30 30 0 0 0 33.31 46.31 Z" fill="#56C02B"/><path d="M21.44 16.67 A58 58 0 0 1 38.40 6.17 L48.83 32.16 A30 30 0 0 0 40.06 37.59 Z" fill="#00689D"/><path d="M39.70 5.67 A58 58 0 0 1 59.30 2.00 L59.64 30.00 A30 30 0 0 0 49.50 31.90 Z" fill="#19486A"/></svg>